<svg xmlns="http://www.w3.org/2000/svg" viewBox="0 0 512 512">
  <defs>
    <linearGradient id="bg" x1="0" y1="0" x2="0" y2="1">
      <stop offset="0" stop-color="#34302b"/>
      <stop offset="1" stop-color="#1f1c18"/>
    </linearGradient>
    <linearGradient id="gold" x1="0" y1="0" x2="0" y2="1">
      <stop offset="0" stop-color="#f2d089"/>
      <stop offset="1" stop-color="#c69245"/>
    </linearGradient>
  </defs>
  <rect x="16" y="16" width="480" height="480" rx="116" fill="url(#bg)"/>
  <rect x="24" y="24" width="464" height="464" rx="108" fill="none" stroke="#d7a95c" stroke-opacity="0.4" stroke-width="8"/>
  <g fill="url(#gold)">
    <path d="M150 360 h220 a10 10 0 0 1 10 10 v18 a8 8 0 0 1 -8 8 H148 a8 8 0 0 1 -8 -8 v-18 a10 10 0 0 1 10 -10 Z"/>
    <path d="M192 362 C192 322 202 300 214 282 C224 265 228 252 221 240 C213 230 199 232 187 240 C171 250 152 250 142 238 C133 227 135 210 148 200 C171 181 193 171 209 151 C217 139 222 123 226 107 C234 116 241 125 247 136 C253 119 263 104 279 100 C301 95 322 110 334 141 C352 191 361 282 356 362 Z"/>
    <circle cx="205" cy="196" r="10" fill="#211e1a"/>
  </g>
</svg>
